<svg width="32" height="33" viewBox="0 0 32 33" fill="none" xmlns="http://www.w3.org/2000/svg">
<path id="Star 1" d="M13.2118 1.3681C14.6758 -0.343525 17.3223 -0.343525 18.7863 1.3681C19.6815 2.41476 21.0877 2.87165 22.4272 2.5511C24.6177 2.0269 26.7587 3.58246 26.9371 5.82773C27.0461 7.20071 27.9152 8.39686 29.1873 8.92486C31.2675 9.7883 32.0853 12.3053 30.9099 14.2266C30.1911 15.4014 30.1911 16.8799 30.9099 18.0548C32.0853 19.9761 31.2675 22.4931 29.1873 23.3565C27.9152 23.8845 27.0461 25.0807 26.9371 26.4536C26.7587 28.6989 24.6177 30.2545 22.4272 29.7303C21.0877 29.4097 19.6815 29.8666 18.7863 30.9133C17.3223 32.6249 14.6758 32.6249 13.2118 30.9133C12.3165 29.8666 10.9103 29.4097 9.57086 29.7303C7.38037 30.2545 5.23932 28.6989 5.06097 26.4536C4.95191 25.0807 4.08285 23.8845 2.81077 23.3565C0.730513 22.4931 -0.0872976 19.9761 1.08815 18.0548C1.80693 16.8799 1.80693 15.4014 1.08815 14.2266C-0.0872977 12.3053 0.730513 9.7883 2.81077 8.92486C4.08285 8.39686 4.95191 7.20071 5.06097 5.82773C5.23932 3.58246 7.38037 2.0269 9.57086 2.5511C10.9103 2.87165 12.3165 2.41476 13.2118 1.3681Z" fill="#23B100"/>
</svg>
